# xmcd
# 
# Track frame offsets:
#     150
#     18702
#     44764
#     60070
#     86515
#     105857
#     125510
#     142625
#     172775
#     224277
# 
# Disc length: 3244
# 
# Revision: 8
# Processed by: cddbd v1.5.2PL0 Copyright (c) Steve Scherf et al.
# Submitted via: fre:ac v1.0.31
# 
DISCID=760caa0a
DTITLE=The Rolling Stones - Sticky Fingers (Deluxe Edition 2012 Disc 2)
DYEAR=2012
DGENRE=Rock/Pop
TTITLE0=Brown Sugar (With Eric Clapton)
TTITLE1=Wild Horses (Acoustic Version)
TTITLE2=Can't You Hear Me Knocking (Alternate Version)
TTITLE3=Bitch (Extended Version)
TTITLE4=Dead Flowers (Alternate Version)
TTITLE5=Live With Me (Live At The Roundhouse)
TTITLE6=Stray Cat Blues (Live At The Roundhouse)
TTITLE7=Love In Vain (Live At The Roundhouse)
TTITLE8=Midnight Rambler (Live At The Roundhouse)
TTITLE9=Honky Tonk Women (Live At The Roundhouse)
EXTD=YEAR: 1971
EXTT0=
EXTT1=
EXTT2=
EXTT3=
EXTT4=
EXTT5=
EXTT6=
EXTT7=
EXTT8=
EXTT9=
PLAYORDER=
